<mxfile host="app.diagrams.net" modified="2024-04-17T19:17:05.193Z" agent="Mozilla/5.0 (Windows NT 10.0; Win64; x64) AppleWebKit/537.36 (KHTML, like Gecko) Chrome/123.0.0.0 Safari/537.36 OPR/109.0.0.0" version="24.2.5" etag="kVeuNDO2G-0dn1ZT-Ij_" type="github">
  <diagram name="Strona-1" id="BfCBive3UCB2jplvildm">
    <mxGraphModel>
      <root>
        <mxCell id="0" />
        <mxCell id="1" parent="0" />
      </root>
    </mxGraphModel>
  </diagram>
</mxfile>
